<svg width="512" height="512" viewBox="0 0 512 512" xmlns="http://www.w3.org/2000/svg" fill="none">
  <defs>
    <!-- 1. 背景深色渐变 -->
    <linearGradient id="bg-grad" x1="0" y1="0" x2="512" y2="512" gradientUnits="userSpaceOnUse">
      <stop offset="0%" stop-color="#0f172a"/>
      <stop offset="100%" stop-color="#334155"/>
    </linearGradient>
    <!-- 2. 背景中的装饰光斑（用于衬托玻璃感） -->
    <radialGradient id="orb-1" cx="0" cy="0" r="1" gradientUnits="userSpaceOnUse" gradientTransform="translate(150 150) rotate(90) scale(150)">
      <stop stop-color="#818cf8"/>
      <stop offset="1" stop-color="#818cf8" stop-opacity="0"/>
    </radialGradient>
    <radialGradient id="orb-2" cx="0" cy="0" r="1" gradientUnits="userSpaceOnUse" gradientTransform="translate(362 362) rotate(90) scale(160)">
      <stop stop-color="#ec4899"/>
      <stop offset="1" stop-color="#ec4899" stop-opacity="0"/>
    </radialGradient>
    <!-- 3. 玻璃本体填充：半透明白 -->
    <linearGradient id="glass-fill" x1="100" y1="80" x2="412" y2="432" gradientUnits="userSpaceOnUse">
      <stop offset="0%" stop-color="white" stop-opacity="0.15"/>
      <stop offset="100%" stop-color="white" stop-opacity="0.05"/>
    </linearGradient>
    <!-- 4. 玻璃边框：模拟反光（左上亮，右下暗） -->
    <linearGradient id="glass-stroke" x1="100" y1="80" x2="412" y2="432" gradientUnits="userSpaceOnUse">
      <stop offset="0%" stop-color="white" stop-opacity="0.6"/>
      <stop offset="50%" stop-color="white" stop-opacity="0.1"/>
      <stop offset="100%" stop-color="white" stop-opacity="0.05"/>
    </linearGradient>
    <!-- 5. 投影滤镜 -->
    <filter id="shadow-blur" x="-20%" y="-20%" width="140%" height="140%">
      <feGaussianBlur in="SourceAlpha" stdDeviation="15"/>
      <feOffset dx="0" dy="15" result="offsetblur"/>
      <feComponentTransfer>
        <feFuncA type="linear" slope="0.4"/>
      </feComponentTransfer>
      <feMerge>
        <feMergeNode in="offsetblur"/>
        <feMergeNode in="SourceGraphic"/>
      </feMerge>
    </filter>
  </defs>
  <!-- 背景层：方圆形 (Squircle) -->
  <rect x="0" y="0" width="512" height="512" rx="128" fill="url(#bg-grad)"/>
  <!-- 装饰层：光斑 -->
  <circle cx="150" cy="150" r="150" fill="url(#orb-1)" fill-opacity="0.6"/>
  <circle cx="362" cy="362" r="160" fill="url(#orb-2)" fill-opacity="0.5"/>
  <!-- 主体层：玻璃卡片 -->
  <g filter="url(#shadow-blur)">
    <!-- 卡片形状 -->
    <rect x="100" y="80" width="312" height="352" rx="24" 
          fill="url(#glass-fill)" 
          stroke="url(#glass-stroke)" 
          stroke-width="2"/>
    <!-- 内部反光 (Highlight) -->
    <path d="M124 82 H388 C399 82 408 91 408 102 V200 L102 120 V104 C102 91 111 82 124 82 Z" 
          fill="white" fill-opacity="0.03"/>
  </g>
  <!-- 内容层：图标与文字 -->
  <g transform="translate(100, 80)">
    <!-- YAML Header: 三个短横 -->
    <g fill="white" fill-opacity="0.9">
      <rect x="40" y="40" width="30" height="6" rx="3"/>
      <rect x="80" y="40" width="30" height="6" rx="3"/>
      <rect x="120" y="40" width="30" height="6" rx="3"/>
    </g>
    <!-- Markdown Logo (M) + Arrow Concept -->
    <!-- 这是一个更现代、线条感更强的 M -->
    <path d="M80 120 
             L80 260 
             L120 260 
             L120 180 
             L156 216 
             L192 180 
             L192 260 
             L232 260 
             L232 120 
             L192 120 
             L156 156 
             L120 120 
             Z" 
          fill="white" fill-opacity="0.85"/>
    <!-- PDF Element: 红点/印记 -->
    <circle cx="250" cy="290" r="24" fill="#ef4444" fill-opacity="0.9"/>
    <!-- 印记上的微小反光 -->
    <circle cx="242" cy="282" r="8" fill="white" fill-opacity="0.3"/>
    <!-- 底部装饰线条：代表生成的内容 -->
    <rect x="80" y="290" width="100" height="6" rx="3" fill="white" fill-opacity="0.4"/>
    <rect x="80" y="310" width="60" height="6" rx="3" fill="white" fill-opacity="0.3"/>
  </g>
</svg>
